
        <svg xmlns="http://www.w3.org/2000/svg" xmlns:xlink="http://www.w3.org/1999/xlink" version="1.1" width="3164.8351648351645" 
        height="936.2637362637362" viewBox="0 0 3164.8351648351645 936.2637362637362">
			
			<g transform="scale(8.241758241758241) translate(10, 10)">
				<defs id="SvgjsDefs1535"><linearGradient id="SvgjsLinearGradient1540"><stop id="SvgjsStop1541" stop-color="#8f5e25" offset="0"></stop><stop id="SvgjsStop1542" stop-color="#fbf4a1" offset="0.5"></stop><stop id="SvgjsStop1543" stop-color="#8f5e25" offset="1"></stop></linearGradient><linearGradient id="SvgjsLinearGradient1544"><stop id="SvgjsStop1545" stop-color="#8f5e25" offset="0"></stop><stop id="SvgjsStop1546" stop-color="#fbf4a1" offset="0.5"></stop><stop id="SvgjsStop1547" stop-color="#8f5e25" offset="1"></stop></linearGradient></defs><g id="SvgjsG1536" featureKey="symbolFeature-0" transform="matrix(0.9359999999999999,0,0,0.9359999999999999,0.001829017639160156,0)" fill="url(#SvgjsLinearGradient1540)"> <g xmlns="http://www.w3.org/2000/svg">  <path d="m82.812 40.625c-3.8828 0.003906-7.0273 3.1484-7.0312 7.0312v4.6875c0 3.8828 3.1484 7.0312 7.0312 7.0312s7.0312-3.1484 7.0312-7.0312v-4.6875c-0.003906-3.8828-3.1484-7.0273-7.0312-7.0312zm3.9062 11.719c0 2.1562-1.75 3.9062-3.9062 3.9062s-3.9062-1.75-3.9062-3.9062v-4.6875c0-2.1562 1.75-3.9062 3.9062-3.9062s3.9062 1.75 3.9062 3.9062z"></path>  <path d="m96.875 76.16v-9.0742c0.070312-3.8828-2.082-7.4688-5.5469-9.2227-0.61719 0.94531-1.3867 1.7852-2.2773 2.4805 2.6875 0.71094 4.6992 3.4609 4.6992 6.7422v9.0742h-3.125v-4.2852c0-0.86328-0.69922-1.5625-1.5625-1.5625s-1.5625 0.69922-1.5625 1.5625v4.2852h-3.125c-1.7266 0.003906-3.125 1.4023-3.125 3.125v16.027c0 0.89453-0.49609 1.5625-0.9375 1.5625h-1.25c-0.44141 0-0.9375-0.66797-0.9375-1.5625v-23.438c0-0.86328-0.69922-1.5625-1.5625-1.5625s-1.5625 0.69922-1.5625 1.5625v7.0312h-2.5039c-0.29297 0-0.62109-0.35938-0.62109-0.87891v-10.941c0-3.2812 2.0117-6.0312 4.6992-6.7461v0.003906c-0.89062-0.69531-1.6602-1.5352-2.2773-2.4805-3.4648 1.7539-5.6172 5.3398-5.5469 9.2227v10.941c-0.066406 2.1367 1.6055 3.9258 3.7461 4.0039h2.5039v13.281c0 2.5859 1.8242 4.6875 4.0625 4.6875h1.25c0.92969-0.007812 1.8203-0.36719 2.5-1 0.67969 0.63281 1.5703 0.99219 2.5 1h1.25c2.2383 0 4.0625-2.1016 4.0625-4.6875v-3.5273h6.25c1.7266 0 3.125-1.3984 3.125-3.125v-9.375c0-1.7227-1.3984-3.1211-3.125-3.125zm-9.375 19.152c0 0.89453-0.49609 1.5625-0.9375 1.5625h-1.25c-0.44141 0-0.9375-0.66797-0.9375-1.5625v-3.5273h3.125zm-3.125-6.6523v-9.375h12.5v9.375z"></path>  <path d="m62.109 59.375c-0.25781 0-0.51172 0.019531-0.76562 0.050781 0.74609 0.85156 1.1562 1.9453 1.1562 3.0742 0 0.011719-0.003906 0.027344-0.003906 0.039062 1.2422 0.14453 2.2734 1.0234 2.6172 2.2266s-0.066406 2.4922-1.043 3.2734c0.58203 0.33984 1.1094 0.77344 1.5547 1.2773v-2.2305c0-1.9219 0.39844-3.8203 1.1719-5.5781-1.1797-1.3555-2.8906-2.1328-4.6875-2.1328z"></path>  <path d="m59.375 70.312h-2.3438v-6.25h0.78125c0.86328 0 1.5625-0.69922 1.5625-1.5625s-0.69922-1.5625-1.5625-1.5625h-12.5c-0.86328 0-1.5625 0.69922-1.5625 1.5625s0.69922 1.5625 1.5625 1.5625h0.78125v6.25h-2.3438c-2.5859 0.003906-4.6836 2.1016-4.6875 4.6875v15.625c0.003906 2.5859 2.1016 4.6836 4.6875 4.6875h15.625c2.5859-0.003906 4.6836-2.1016 4.6875-4.6875v-15.625c-0.003906-2.5859-2.1016-4.6836-4.6875-4.6875zm-10.156-6.25h4.6875v6.25h-4.6875zm11.719 26.562c0 0.86328-0.69922 1.5625-1.5625 1.5625h-15.625c-0.86328 0-1.5625-0.69922-1.5625-1.5625v-15.625c0-0.86328 0.69922-1.5625 1.5625-1.5625h15.625c0.86328 0 1.5625 0.69922 1.5625 1.5625z"></path>  <path d="m57.812 96.875h-1.5625c-0.86328 0-1.5625 0.69922-1.5625 1.5625s0.69922 1.5625 1.5625 1.5625h1.5625c0.86328 0 1.5625-0.69922 1.5625-1.5625s-0.69922-1.5625-1.5625-1.5625z"></path>  <path d="m46.875 96.875h-1.5625c-0.86328 0-1.5625 0.69922-1.5625 1.5625s0.69922 1.5625 1.5625 1.5625h1.5625c0.86328 0 1.5625-0.69922 1.5625-1.5625s-0.69922-1.5625-1.5625-1.5625z"></path>  <path d="m48.438 79.688c-0.86328 0-1.5625 0.69922-1.5625 1.5625v3.125c0 0.86328 0.69922 1.5625 1.5625 1.5625s1.5625-0.69922 1.5625-1.5625v-3.125c0-0.86328-0.69922-1.5625-1.5625-1.5625z"></path>  <path d="m54.688 79.688c-0.86328 0-1.5625 0.69922-1.5625 1.5625v3.125c0 0.86328 0.69922 1.5625 1.5625 1.5625s1.5625-0.69922 1.5625-1.5625v-3.125c0-0.86328-0.69922-1.5625-1.5625-1.5625z"></path>  <path d="m84.375 4.9102v-3.3477c0-0.86328-0.69922-1.5625-1.5625-1.5625s-1.5625 0.69922-1.5625 1.5625v3.3477c0 0.86328 0.69922 1.5625 1.5625 1.5625s1.5625-0.69922 1.5625-1.5625z"></path>  <path d="m72.02 4.832c-0.64062-0.57422-1.6289-0.52344-2.207 0.12109-0.57422 0.64062-0.52344 1.6289 0.12109 2.207l2.4648 2.2148c0.64062 0.57422 1.6289 0.52344 2.207-0.12109 0.57812-0.64062 0.52344-1.6289-0.11719-2.207z"></path>  <path d="m93.777 4.832-2.4688 2.2148h0.003906c-0.30859 0.27734-0.49609 0.66406-0.51953 1.0781-0.023438 0.41406 0.12109 0.82031 0.39844 1.1289s0.66406 0.49609 1.0781 0.51953c0.41406 0.019531 0.82031-0.125 1.1289-0.40234l2.4688-2.2148v0.003906c0.30859-0.27734 0.49609-0.66797 0.51953-1.082 0.019531-0.41406-0.12109-0.82031-0.39844-1.1289-0.27734-0.30859-0.66797-0.49219-1.082-0.51562-0.41406-0.023438-0.82031 0.12109-1.1289 0.39844z"></path>  <path d="m77.871 2.0586c-0.36328-0.78516-1.2891-1.1289-2.0742-0.76562-0.78516 0.35938-1.125 1.2891-0.76562 2.0742l1.3359 2.8945c0.35937 0.78125 1.2891 1.1211 2.0703 0.76172 0.78516-0.35938 1.125-1.2891 0.76562-2.0703z"></path>  <path d="m90.043 1.3086c-0.375-0.17578-0.80469-0.19141-1.1953-0.050782-0.38672 0.14453-0.70312 0.43359-0.87891 0.80859l-1.3438 2.8906c-0.36328 0.78516-0.023438 1.7148 0.75781 2.0781 0.78516 0.36328 1.7148 0.023438 2.0781-0.76172l1.3438-2.8906c0.17187-0.375 0.19141-0.80469 0.046874-1.1914-0.14062-0.39062-0.43359-0.70703-0.80859-0.88281z"></path>  <path d="m93.762 12.59c0.14453 0.38672 0.4375 0.70312 0.81641 0.87109 0.37891 0.17187 0.80859 0.18359 1.1953 0.039062l3.2148-1.2148c0.80859-0.30859 1.2148-1.207 0.91016-2.0156-0.30469-0.80859-1.207-1.2148-2.0117-0.91016l-3.2148 1.2148h-0.003906c-0.80469 0.30469-1.2109 1.207-0.90625 2.0156z"></path>  <path d="m65.711 10.688c-0.13672 0.39062-0.10938 0.82031 0.070312 1.1914 0.17969 0.375 0.5 0.66016 0.89062 0.79688l3.25 1.1367c0.39062 0.13672 0.82031 0.11328 1.1953-0.066406 0.375-0.17969 0.66016-0.5 0.79687-0.89062 0.13672-0.39062 0.11328-0.82031-0.066406-1.1953-0.17969-0.375-0.5-0.66016-0.89453-0.79688l-3.25-1.1367c-0.8125-0.28516-1.7031 0.14453-1.9922 0.96094z"></path>  <path d="m72.57 17.188c0 0.86328 0.69922 1.5625 1.5625 1.5625 0.86328 0 1.5625-0.69922 1.5625-1.5625 0-3.5938 3.1914-6.5195 7.1172-6.5195s7.1172 2.9258 7.1172 6.5195c0 0.86328 0.69922 1.5625 1.5625 1.5625 0.86328 0 1.5625-0.69922 1.5625-1.5625 0-5.3164-4.5938-9.6445-10.242-9.6445s-10.242 4.3281-10.242 9.6445z"></path>  <path d="m27.527 67.188h15.441v-0.64062c-0.96094-0.55859-1.6914-1.4375-2.0625-2.4844h-13.379c-0.70703-2.7578-3.1953-4.6875-6.043-4.6875s-5.3359 1.9297-6.043 4.6914l-11.926-0.003906v-3.125h7.8125c0.86328 0 1.5625-0.69922 1.5625-1.5625s-0.69922-1.5625-1.5625-1.5625h-4.6875c0.003906-2.5859 2.1016-4.6836 4.6875-4.6875h61.363c-0.023437-0.25781-0.035156-0.51953-0.035156-0.78125v-2.3438h-6.6914l-5.207-6.25h6.918c0.46484 0 0.90625 0.20703 1.2031 0.5625l3.7773 4.5352v-1.1914c0-1.0547 0.16406-2.1016 0.48828-3.1016l-1.8672-2.2422c-0.89062-1.0703-2.207-1.6875-3.6016-1.6875h-2.0508v-3.125c0-1.7266-1.3984-3.125-3.125-3.125v-3.125c0-1.7266-1.3984-3.125-3.125-3.125h-5.4688c0-0.86328-0.69922-1.5625-1.5625-1.5625s-1.5625 0.69922-1.5625 1.5625h-5.4688c-1.7266 0-3.125 1.3984-3.125 3.125v3.125c-1.7266 0-3.125 1.3984-3.125 3.125v3.125h-2.9219c-1.3125 0-2.5664 0.55078-3.457 1.5195l-7.1992 7.8555h-14.156c-4.3125 0.003906-7.8086 3.5-7.8125 7.8125-1.7266 0-3.125 1.3984-3.125 3.125v4.6875c0 0.86328 0.69922 1.5625 1.5625 1.5625h13.488c0.14062 0.54688 0.35547 1.0742 0.63672 1.5625h-14.516c-0.86328 0-1.5625 0.69922-1.5625 1.5625s0.69922 1.5625 1.5625 1.5625h34.582c0.3125-1.2109 0.98438-2.3008 1.9219-3.125h-11.176c0.28125-0.48828 0.49609-1.0156 0.63672-1.5625zm26.379-35.938h5.4688v3.125h-5.4688zm0 6.25h8.5938v3.125h-8.5938zm2.7852 6.25 5.207 6.25h-14.047v-6.25zm-11.379-12.5h5.4688v3.125h-5.4688zm-3.125 6.25h8.5938v3.125h-8.5938zm-7.1992 6.7578c0.29688-0.32422 0.71484-0.50781 1.1523-0.50781h8.5859v6.25h-15.004zm-13.504 24.492c-1.2656 0-2.4023-0.76172-2.8867-1.9297-0.48438-1.168-0.21484-2.5117 0.67578-3.4062 0.89453-0.89062 2.2383-1.1602 3.4062-0.67578 1.168 0.48438 1.9297 1.6211 1.9297 2.8867 0 1.7266-1.3984 3.125-3.125 3.125z"></path> </g></g><g id="SvgjsG1537" featureKey="nameFeature-0" transform="matrix(0.6954393373495407,0,0,0.6954393373495407,111.06661669186842,33.076664100932426)" fill="url(#SvgjsLinearGradient1544)"><path d="M35.781 38.5937 l-10.078 -14.063 c1.3541 -0.41664 2.552 -0.91141 3.5937 -1.4843 c1.1459 -0.72914 2.0834 -1.5364 2.8125 -2.4218 c0.83336 -0.98961 1.4323 -2.0573 1.797 -3.2032 c0.46875 -1.25 0.70313 -2.6563 0.70313 -4.2188 c0 -1.8229 -0.3125 -3.4635 -0.9375 -4.9219 c-0.625 -1.4063 -1.5365 -2.6302 -2.7344 -3.6719 c-1.1459 -0.98961 -2.6042 -1.7709 -4.3751 -2.3438 c-1.8229 -0.57289 -3.75 -0.85938 -5.7813 -0.85938 l-16.563 0 l0 5.9375 l16.016 0 c2.4479 0 4.3489 0.52086 5.703 1.5625 s2.0313 2.6041 2.0313 4.6875 c0 1.9271 -0.67711 3.4375 -2.0313 4.5313 c-1.3541 1.1459 -3.2291 1.7188 -5.625 1.7188 l-16.094 0 l0 18.75 l6.4844 0 l0 -12.969 l8.2031 0 l9.1406 12.969 l7.7344 0 l0 0 z M58.344 32.6562 c-0.78125 -0.15625 -1.5105 -0.3907 -2.1876 -0.7032 c-1.4584 -0.67711 -2.7344 -1.6146 -3.8281 -2.8125 c-1.0416 -1.0938 -1.875 -2.4479 -2.5 -4.0625 c-0.57289 -1.6146 -0.85938 -3.2552 -0.85938 -4.9219 l0 -0.15625 l0 -0.23438 c0 -1.7188 0.28648 -3.3854 0.85938 -5 c0.67711 -1.6666 1.5105 -2.9948 2.5001 -3.9844 c1.0416 -1.1979 2.2916 -2.1094 3.75 -2.7344 c0.88539 -0.41664 1.6406 -0.67703 2.2656 -0.78117 l0 -5.8594 c-1.8229 0.26039 -3.4375 0.70313 -4.8438 1.3281 c-2.2916 0.98961 -4.2448 2.3177 -5.8594 3.9844 s-2.8906 3.6458 -3.8281 5.9374 s-1.4063 4.6875 -1.4063 7.1875 l0 0.15625 l0 0.23438 c0 2.5521 0.46875 4.948 1.4063 7.1876 c0.83336 2.2396 2.0834 4.1927 3.75 5.8594 c1.6666 1.7188 3.6198 3.0469 5.8594 3.9844 c1.4063 0.625 3.0469 1.0677 4.9219 1.3281 l0 -5.9375 z M79.594 20 l0.000076294 -0.23438 c0 -2.5521 -0.46875 -4.948 -1.4063 -7.1876 c-0.9375 -2.2916 -2.2135 -4.2708 -3.8281 -5.9374 c-1.5625 -1.6666 -3.4896 -2.9688 -5.7813 -3.9063 c-1.3021 -0.625 -2.8906 -1.0677 -4.7656 -1.3281 l0 5.9375 l0.9375 0.3125 c0.46875 0.15625 0.83336 0.28648 1.0938 0.39063 c1.4584 0.67711 2.7344 1.6146 3.8281 2.8125 c1.0416 1.0938 1.875 2.4479 2.5 4.0625 c0.57289 1.6146 0.85938 3.2552 0.85938 4.9219 l0 0.15625 l0 0.23438 c0 1.7188 -0.28648 3.3854 -0.85938 5 c-0.67711 1.6666 -1.5105 2.9948 -2.5001 3.9844 c-1.0416 1.1979 -2.2916 2.1094 -3.75 2.7344 c-0.67711 0.3125 -1.3802 0.54688 -2.1094 0.70313 l0 5.9375 c1.5625 -0.20836 3.125 -0.65109 4.6875 -1.3282 c2.1354 -0.88539 4.0885 -2.2135 5.8594 -3.9844 c1.7188 -1.8229 2.9948 -3.802 3.8281 -5.9374 c0.9375 -2.2916 1.4063 -4.6875 1.4063 -7.1875 l0 -0.15625 z M112.703 38.5937 l7.0313 0 l-13.594 -37.266 l-7.1094 0 l7.8906 22.266 z M83.9531 38.5937 l6.875 0 l8.125 -19.844 l-3.3594 -8.9063 z M154.953 38.5937 l6.5625 0 l0 -27.422 l-6.5625 9.6094 l0 17.813 z M161.516 1.4059999999999988 l-7.0313 0 l-11.484 17.813 l-11.406 -17.813 l-7.0313 0 l0 37.188 l6.5625 0 l0 -26.406 l11.719 17.578 l0.23438 0 l10.234 -15.156 c0.052109 -0.20836 2.7865 -4.6094 8.2031 -13.203 z M194.703 38.5937 l7.0313 0 l-13.594 -37.266 l-7.1094 0 l7.8906 22.266 z M165.9531 38.5937 l6.875 0 l8.125 -19.844 l-3.3594 -8.9063 z M227.734 12.030999999999999 l-17.969 21.719 l0 4.8438 l30.469 0 l0 -5.7813 l-21.172 0 l16.953 -20.781 l-8.2813 0 z M210.4688 1.4059999999999988 l29.766 0 l0 5.7813 l-29.766 0 l0 -5.7813 z M269.281 16.875 l0 -15.547 l-6.5625 0 l0 37.344 l6.5625 0 l0 -21.797 z M290.8281 38.5937 l6.4844 0 l0 -19.922 l-6.4844 -9.1406 l0 29.063 z M316.766 1.4059999999999988 l0 25.703 l-18.359 -25.703 l-7.0313 0 l26.406 37.188 l5.3906 0 l0 -37.188 l-6.4063 0 z M349.875 22.891 l13.828 0 l0 -5.7813 l-13.828 0 l0 5.7813 z M363.703 27.422 l-5.7813 0.000076294 l0 5.3125 l-5.7031 0 c-1.9791 0 -3.75 -0.3125 -5.3125 -0.9375 c-1.5625 -0.57289 -2.9427 -1.4323 -4.1406 -2.5781 c-1.0938 -1.1979 -1.9531 -2.552 -2.5781 -4.0624 c-0.625 -1.4584 -0.9375 -3.1511 -0.9375 -5.0782 c0 -1.8229 0.3125 -3.5156 0.9375 -5.0781 c0.67711 -1.6666 1.5365 -3.0208 2.5781 -4.0624 c1.1459 -1.1459 2.5261 -2.0573 4.1407 -2.7345 c1.5625 -0.625 3.3334 -0.9375 5.3125 -0.9375 l11.406 0.078125 l0 -5.9375 l-11.406 -0.078125 c-2.9166 0 -5.5989 0.46875 -8.0469 1.4063 c-2.3959 0.9375 -4.4792 2.2396 -6.2501 3.9063 c-1.7188 1.6666 -3.099 3.6458 -4.1406 5.9374 c-0.9375 2.2396 -1.4063 4.6875 -1.4063 7.3438 s0.46875 5.1302 1.4063 7.4219 c1.0416 2.3959 2.4219 4.375 4.1406 5.9375 c1.5625 1.5625 3.6459 2.8906 6.25 3.9844 c2.5 0.9375 5.1823 1.4063 8.0469 1.4063 l11.484 0 l0 -11.25 z"></path></g>
			</g>
		</svg>
	